#!OML:ASF F:\twosubjects\two\wednesday\Session 1\rory1.ASF
:FULLY-SPECIFIED
:DEGREES
117
root 7.43399 18.1793 -8.88558 0.123912 -8.33913 -3.18726
lowerback 0.37384 -0.884064 -0.218649
upperback -1.73483 -1.18983 -0.374006
thorax -1.98987 -0.5945 -0.235627
lowerneck -12.5927 -2.67084 -2.09958
upperneck 12.5715 -3.32631 0.668716
head 5.91978 -1.66754 0.262286
rclavicle -1.83379e-014 1.51076e-014
rhumerus 42.1705 -38.5329 -60.0016
rradius 98.7519
rwrist 6.07651
rhand -35.1341 53.9602
rfingers 7.12502
rthumb -8.27415 24.1423
lclavicle -1.83379e-014 1.51076e-014
lhumerus -38.0276 12.127 59.2
lradius 19.9204
lwrist -9.59919
lhand -19.4676 14.3948
lfingers 7.12502
lthumb 6.85382 44.2638
rfemur 3.77661 5.31724 29.1347
rtibia 18.0258
rfoot -14.6217 -4.96369
rtoes 18.0941
lfemur -26.0132 -0.458477 -11.2382
ltibia 27.7336
lfoot -9.38892 10.3193
ltoes -16.9981
118
root 7.42007 18.1761 -8.76018 0.245608 -8.74265 -3.24006
lowerback 0.220437 -1.00857 -0.396536
upperback -1.68588 -1.35773 -0.413813
thorax -1.85082 -0.676122 -0.176875
lowerneck -12.8985 -2.5122 -1.68834
upperneck 12.6146 -3.15655 0.490212
head 5.97287 -1.5781 0.150134
rclavicle 2.03754e-014 -7.95139e-015
rhumerus 43.5647 -36.3625 -62.1217
rradius 98.6296
rwrist 6.78786
rhand -35.0002 52.95
rfingers 7.12502
rthumb -8.145 23.1269
lclavicle 2.03754e-014 -7.95139e-015
lhumerus -38.6238 14.3362 57.1144
lradius 19.0821
lwrist -11.6412
lhand -19.9524 13.7354
lfingers 7.12502
lthumb 6.38577 43.6192
rfemur 4.67478 4.88231 29.1934
rtibia 16.9977
rfoot -14.204 -5.09609
rtoes 9.80846
lfemur -26.0115 -1.31052 -10.7494
ltibia 26.5647
lfoot -8.73247 10.727
ltoes -19.5644
119
root 7.39898 18.186 -8.63424 0.412894 -9.29556 -3.45045
lowerback -0.0543232 -1.2895 -0.39183
upperback -1.32011 -1.72884 -0.512585
thorax -1.32499 -0.863149 -0.286098
lowerneck -14.226 -2.0699 -1.03357
upperneck 12.9492 -2.66752 0.47258
head 6.28906 -1.30516 0.0657911
rclavicle 2.8625e-014 1.59028e-015
rhumerus 45.8521 -33.899 -65.3783
rradius 98.4596
rwrist 7.499
rhand -34.2714 51.5053
rfingers 7.12502
rthumb -7.44153 21.6562
lclavicle 2.8625e-014 1.59028e-015
lhumerus -38.8978 16.5581 54.8957
lradius 18.3597
lwrist -12.6383
lhand -19.375 14.7099
lfingers 7.12502
lthumb 6.9432 44.576
rfemur 5.54739 4.86028 29.4148
rtibia 15.8174
rfoot -13.6285 -4.86532
rtoes 13.68
lfemur -26.0327 -2.00938 -10.0488
ltibia 25.674
lfoot -8.3481 11.1241
ltoes -20.9051
120
root 7.37917 18.1979 -8.51677 0.448139 -9.78734 -3.60185
lowerback -0.211301 -0.643501 -0.456261
upperback -1.56678 -0.864933 -0.221863
thorax -1.48203 -0.428334 0.037859
lowerneck -12.3845 -2.76187 -2.923
upperneck 12.1545 -3.37733 1.2096
head 5.77805 -1.6898 0.567039
rclavicle 4.02539e-015 3.18055e-015
rhumerus 45.6281 -32.7999 -64.9462
rradius 97.9943
rwrist 8.11283
rhand -33.9292 49.3703
rfingers 7.12502
rthumb -7.11124 19.5098
lclavicle 4.02539e-015 3.18055e-015
lhumerus -39.1285 17.7804 54.1799
lradius 16.9487
lwrist -15.8768
lhand -19.2887 14.3204
lfingers 7.12502
lthumb 7.02646 44.1838
rfemur 6.47917 4.98634 29.6044
rtibia 14.7544
rfoot -13.1009 -4.75376
rtoes 9.91694
lfemur -26.0421 -2.99599 -9.34296
ltibia 24.922
lfoot -8.09183 11.6716
ltoes -20.9179
121
root 7.3653 18.208 -8.39598 0.423348 -10.2468 -3.67501
lowerback -0.195998 -0.693434 -0.619013
upperback -1.51702 -0.933132 -0.280943
thorax -1.43778 -0.460904 0.069058
lowerneck -12.0879 -2.63082 -2.66362
upperneck 11.8213 -3.25469 1.22286
head 5.61635 -1.61815 0.545692
rclavicle 1.04362e-014 1.74931e-014
rhumerus 46.8203 -30.2635 -67.243
rradius 97.2069
rwrist 9.22663
rhand -33.5728 47.1644
rfingers 7.12502
rthumb -6.76719 17.2926
lclavicle 1.04362e-014 1.74931e-014
lhumerus -39.7346 20.795 51.2766
lradius 15.3138
lwrist -20.4013
lhand -19.2152 13.3567
lfingers 7.12502
lthumb 7.09741 43.2177
rfemur 7.40152 4.98914 29.6487
rtibia 13.8443
rfoot -12.6639 -4.59122
rtoes 7.61902
lfemur -26.0263 -4.30013 -8.68583
ltibia 24.3131
lfoot -8.04425 12.224
ltoes -18.3906
122
root 7.35043 18.2181 -8.27528 0.478145 -10.6728 -3.68437
lowerback 0.0260846 -0.55892 -0.6795
upperback -1.80494 -0.760695 -0.411275
thorax -1.85979 -0.37347 -0.0280616
lowerneck -11.8494 -2.68705 -2.61942
upperneck 12.1509 -3.35778 1.27633
head 5.68189 -1.66448 0.547623
rclavicle -1.7344e-014 -2.38542e-015
rhumerus 47.2056 -27.98 -68.4364
rradius 95.865
rwrist 9.7927
rhand -32.3622 44.9991
rfingers 7.12502
rthumb -5.59843 15.0931
lclavicle -1.7344e-014 -2.38542e-015
lhumerus -40.2631 22.5249 48.8007
lradius 14.0124
lwrist -23.6369
lhand -17.8249 13.7573
lfingers 7.12502
lthumb 8.4393 43.5687
rfemur 8.18693 4.96538 29.5897
rtibia 13.0379
rfoot -12.1871 -4.31158
rtoes 5.55456
lfemur -26.0053 -5.1639 -8.26386
ltibia 23.8397
lfoot -7.86025 12.3929
ltoes -14.8966
123
root 7.33441 18.2214 -8.15737 0.679535 -11.0449 -3.57383
lowerback -0.0570114 -0.394475 -0.970186
upperback -1.95721 -0.547056 -0.526518
thorax -1.96896 -0.26254 0.0131928
lowerneck -11.9222 -2.91226 -2.76712
upperneck 12.325 -3.65541 1.40494
head 5.76013 -1.80648 0.584364
rclavicle 1.90833e-014 7.15625e-015
rhumerus 47.9716 -25.7887 -69.4404
rradius 93.5699
rwrist 10.2285
rhand -31.1819 43.1027
rfingers 7.12502
rthumb -4.45877 13.1696
lclavicle 1.90833e-014 7.15625e-015
lhumerus -40.924 25.6394 45.5917
lradius 12.9292
lwrist -27.7906
lhand -13.8584 17.2057
lfingers 7.12502
lthumb 12.2656 46.826
rfemur 8.73999 5.04588 29.393
rtibia 12.3258
rfoot -11.8055 -3.90276
rtoes 1.86213
lfemur -26.0407 -5.1374 -8.33065
ltibia 23.4695
lfoot -6.94502 11.9905
ltoes -13.5173
124
root 7.32173 18.2248 -8.02413 0.839708 -11.4243 -3.56405
lowerback -0.577462 -0.28204 -1.25696
upperback -1.79251 -0.388717 -0.514062
thorax -1.50701 -0.181402 0.180748
lowerneck -11.7487 -3.22351 -3.26229
upperneck 11.7765 -4.0344 1.74412
head 5.58409 -1.98897 0.744614
rclavicle 1.85864e-014 -4.77083e-015
rhumerus 49.4628 -23.4081 -70.466
rradius 90.3061
rwrist 10.6164
rhand -30.2241 41.4617
rfingers 7.12502
rthumb -3.53388 11.5113
lclavicle 1.85864e-014 -4.77083e-015
lhumerus -42.9915 32.4365 39.6101
lradius 11.5449
lwrist -36.2902
lhand -14.5822 30.0829
lfingers 7.12502
lthumb 11.5677 59.7436
rfemur 9.31821 4.99577 29.208
rtibia 11.7523
rfoot -11.593 -3.24299
rtoes 2.13238
lfemur -26.0157 -5.0866 -8.38478
ltibia 23.2443
lfoot -5.81004 11.4307
ltoes -13.0532
125
root 7.31231 18.2306 -7.88675 0.816765 -11.762 -3.46955
lowerback -0.978518 -0.266577 -1.55551
upperback -1.65577 -0.359627 -0.598929
thorax -1.14118 -0.166268 0.258496
lowerneck -11.484 -3.18313 -3.26113
upperneck 11.6362 -4.02035 1.98235
head 5.50012 -1.96676 0.825211
rclavicle -4.55714e-014 7.15625e-015
rhumerus 50.9356 -20.935 -71.0332
rradius 86.1155
rwrist 10.7101
rhand -29.0397 39.1838
rfingers 7.12502
rthumb -2.39001 9.21745
lclavicle -4.55714e-014 7.15625e-015
lhumerus -46.8996 39.731 31.5856
lradius 10.46
lwrist -45.672
lhand -16.698 19.6757
lfingers 7.12502
lthumb 9.52671 49.4403
rfemur 10.021 4.72165 28.8692
rtibia 11.3323
rfoot -11.4719 -2.54306
rtoes 2.50772
lfemur -25.9064 -5.15199 -8.54168
ltibia 23.1717
lfoot -4.74447 10.763
ltoes -11.7252
126
root 7.30375 18.2344 -7.75996 0.94373 -12.043 -3.6434
lowerback -1.11216 -0.200715 -1.51597
upperback -1.77733 -0.271629 -0.655836
thorax -1.19271 -0.122473 0.177791
lowerneck -11.6159 -2.86577 -2.8331
upperneck 12.4142 -3.68594 2.04702
head 5.75049 -1.77878 0.798091
rclavicle -1.10325e-014 1.43125e-014
rhumerus 52.1653 -18.7083 -70.9962
rradius 81.0246
rwrist 10.5362
rhand -27.4652 36.5205
rfingers 7.12502
rthumb -0.869361 6.54252
lclavicle -1.10325e-014 1.43125e-014
lhumerus -47.3022 41.1782 29.8051
lradius 9.83954
lwrist -47.1814
lhand -14.6876 20.0295
lfingers 7.12502
lthumb 11.4661 49.696
rfemur 10.6102 4.791 28.9213
rtibia 10.8655
rfoot -11.2138 -2.1022
rtoes 2.9126
lfemur -25.9841 -4.99655 -8.4592
ltibia 23.2816
lfoot -3.6803 10.0987
ltoes -7.47092
127
root 7.29952 18.243 -7.63563 1.3644 -12.3178 -4.21669
lowerback -1.49879 0.0574256 -1.0672
upperback -1.89273 0.0770667 -0.514791
thorax -1.0985 0.0470886 0.0713887
lowerneck -11.5367 -3.11198 -2.91096
upperneck 12.5376 -3.99344 1.92981
head 5.78282 -1.94143 0.747808
rclavicle -1.46604e-014 -1.27222e-014
rhumerus 53.7698 -16.9021 -70.3915
rradius 75.0693
rwrist 10.2025
rhand -25.4221 34.2894
rfingers 7.12502
rthumb 1.10392 4.31251
lclavicle -1.46604e-014 -1.27222e-014
lhumerus -47.122 42.6107 28.9021
lradius 9.17454
lwrist -48.6702
lhand -14.3579 19.9333
lfingers 7.12502
lthumb 11.784 49.5818
rfemur 10.9188 5.18109 29.4137
rtibia 10.3348
rfoot -10.8096 -1.6121
rtoes 5.51958
lfemur -26.2898 -4.61481 -8.04036
ltibia 23.5973
lfoot -2.6555 9.66392
ltoes -2.45488
128
root 7.29689 18.256 -7.51886 1.75618 -12.6797 -4.7367
lowerback -1.88567 0.323278 -0.80005
upperback -1.95549 0.434815 -0.331407
thorax -0.948663 0.223555 0.113468
lowerneck -12.1135 -3.23243 -2.93249
upperneck 13.3662 -4.14467 1.88079
head 6.14591 -2.01468 0.708224
rclavicle 2.94698e-014 2.38542e-015
rhumerus 56.0243 -15.445 -70.026
rradius 68.3265
rwrist 11.5392
rhand -21.7666 32.5696
rfingers 7.12502
rthumb 4.6341 2.6403
lclavicle 2.94698e-014 2.38542e-015
lhumerus -46.7854 44.3493 28.2502
lradius 8.51166
lwrist -50.1899
lhand -15.4149 19.6108
lfingers 7.12502
lthumb 10.7645 49.315
rfemur 11.1628 5.62781 29.8399
rtibia 9.92434
rfoot -10.3525 -1.21833
rtoes 9.19524
lfemur -26.5718 -4.29461 -7.66748
ltibia 24.0805
lfoot -2.55897 9.88168
ltoes 1.24839
